<?xml version="1.0" standalone="no"?>
<!DOCTYPE svg PUBLIC "-//W3C//DTD SVG 20010904//EN"
 "http://www.w3.org/TR/2001/REC-SVG-20010904/DTD/svg10.dtd">
<svg version="1.0" xmlns="http://www.w3.org/2000/svg"
 width="2251.000000pt" height="2251.000000pt" viewBox="0 0 2251.000000 2251.000000"
 preserveAspectRatio="xMidYMid meet">
<metadata>
Created by potrace 1.14, written by Peter Selinger 2001-2017
</metadata>
<g transform="translate(0.000000,2251.000000) scale(0.100000,-0.100000)"
fill="#000000" stroke="none">
<path d="M10927 22503 c-1 -1 -76 -4 -167 -8 -91 -3 -185 -8 -210 -10 -25 -2
-90 -6 -145 -10 -55 -3 -113 -8 -130 -10 -16 -2 -64 -7 -105 -10 -41 -3 -88
-8 -105 -10 -43 -6 -110 -14 -179 -21 -33 -3 -67 -7 -76 -9 -9 -2 -41 -6 -71
-10 -30 -3 -65 -8 -79 -10 -14 -2 -45 -6 -70 -10 -25 -3 -56 -8 -70 -10 -14
-3 -41 -7 -60 -10 -19 -3 -71 -12 -115 -20 -44 -8 -98 -17 -120 -21 -22 -3
-70 -12 -107 -20 -37 -7 -80 -16 -95 -19 -43 -8 -63 -12 -169 -35 -55 -12
-110 -24 -124 -26 -14 -3 -70 -17 -125 -30 -55 -14 -107 -27 -115 -29 -8 -2
-34 -8 -57 -14 -24 -6 -62 -16 -85 -21 -357 -90 -938 -286 -1368 -463 -418
-171 -981 -444 -1250 -605 -19 -12 -51 -30 -70 -40 -19 -10 -115 -66 -212
-125 -533 -322 -1043 -690 -1523 -1102 -240 -205 -325 -285 -615 -575 -271
-270 -328 -330 -460 -480 -41 -46 -80 -90 -86 -96 -5 -6 -30 -35 -55 -64 -24
-29 -49 -58 -55 -64 -24 -25 -283 -347 -339 -421 -33 -44 -63 -82 -66 -85 -3
-3 -62 -84 -131 -180 -316 -442 -600 -900 -832 -1345 -32 -60 -61 -114 -64
-120 -4 -5 -7 -12 -8 -15 -1 -7 -64 -133 -75 -150 -11 -18 -95 -199 -151 -325
-22 -49 -48 -108 -58 -130 -162 -357 -379 -965 -500 -1395 -22 -80 -44 -158
-50 -175 -17 -53 -131 -538 -144 -608 -3 -15 -7 -35 -10 -45 -3 -9 -7 -33 -10
-52 -3 -19 -8 -46 -11 -60 -2 -14 -7 -36 -10 -50 -2 -14 -7 -38 -10 -55 -3
-16 -7 -41 -10 -55 -2 -13 -7 -42 -11 -65 -3 -22 -9 -58 -14 -80 -5 -22 -11
-60 -14 -85 -3 -25 -8 -56 -11 -70 -3 -14 -7 -47 -10 -75 -3 -27 -8 -57 -10
-65 -2 -8 -7 -40 -10 -70 -3 -30 -8 -72 -10 -92 -3 -21 -7 -55 -10 -75 -2 -21
-7 -63 -10 -93 -3 -30 -8 -71 -10 -90 -3 -19 -7 -69 -10 -110 -5 -75 -12 -154
-20 -240 -14 -153 -20 -378 -20 -765 0 -380 10 -778 20 -795 1 -3 6 -54 9
-115 4 -60 8 -121 10 -135 3 -14 7 -61 11 -105 4 -44 9 -89 10 -100 2 -11 6
-49 10 -85 3 -36 8 -74 10 -85 2 -11 7 -47 10 -80 4 -33 8 -69 10 -80 3 -11 7
-38 10 -60 5 -35 23 -154 39 -255 3 -19 8 -48 11 -65 6 -32 24 -133 31 -175 3
-14 7 -32 9 -40 3 -8 7 -33 11 -55 3 -22 7 -42 9 -45 2 -3 6 -25 10 -50 4 -25
8 -47 10 -51 2 -3 7 -21 10 -40 16 -98 116 -492 186 -739 72 -250 228 -716
298 -889 11 -25 36 -89 56 -141 43 -109 133 -323 179 -425 18 -38 45 -99 61
-135 50 -113 298 -599 380 -745 69 -125 267 -457 302 -510 7 -11 85 -128 173
-260 88 -132 174 -260 192 -285 59 -83 288 -389 301 -402 7 -7 35 -42 62 -78
93 -122 350 -423 525 -615 68 -75 576 -582 650 -650 30 -28 96 -86 145 -130
50 -44 92 -83 95 -86 7 -8 309 -259 354 -294 21 -16 55 -44 75 -61 95 -79 488
-367 641 -469 25 -16 47 -32 50 -35 3 -3 13 -9 22 -15 9 -5 90 -57 180 -115
89 -58 170 -109 180 -115 10 -5 78 -45 151 -89 216 -129 239 -142 312 -182
285 -155 567 -295 840 -416 50 -22 113 -50 140 -63 343 -156 1096 -418 1495
-521 369 -95 804 -192 980 -218 38 -6 76 -13 130 -22 19 -4 45 -8 57 -9 24 -3
93 -15 128 -21 11 -2 39 -6 62 -9 23 -3 57 -7 75 -10 39 -5 152 -19 323 -39
37 -5 78 -9 225 -21 60 -5 158 -12 260 -19 362 -25 1018 -26 1410 -1 140 9
248 17 270 20 14 2 63 7 110 11 92 7 107 9 190 18 61 7 87 10 210 26 122 16
152 20 180 25 14 3 43 7 65 10 22 3 51 8 65 10 14 3 43 7 65 11 154 21 647
123 845 174 47 12 93 23 102 25 26 6 201 53 298 82 47 13 90 26 95 27 188 47
883 292 1110 392 22 10 42 18 45 19 15 5 293 128 400 178 217 101 521 255 710
362 47 26 110 61 140 78 30 16 62 36 71 43 8 8 19 14 22 14 23 0 571 352 791
508 106 75 371 272 415 308 9 7 45 36 81 64 81 63 132 105 186 150 22 19 60
51 84 70 23 19 48 40 54 45 6 6 47 41 91 80 212 185 280 249 556 525 229 228
309 313 504 530 30 34 254 299 280 331 208 263 234 297 356 464 87 119 138
191 254 360 225 329 487 778 705 1210 157 312 200 405 311 668 44 106 87 206
95 224 8 17 14 37 14 45 0 8 4 18 9 23 8 10 113 291 176 474 93 270 259 847
289 1001 3 14 21 93 40 177 19 84 40 178 46 210 11 61 17 92 25 133 8 39 43
240 50 285 48 315 66 445 80 595 3 30 7 71 9 90 3 19 8 67 11 105 3 39 8 93
10 120 6 55 10 126 22 310 15 256 8 1184 -12 1370 -2 22 -6 76 -9 120 -8 106
-22 263 -31 335 -2 19 -7 60 -10 90 -4 30 -8 66 -10 80 -2 14 -7 50 -10 80 -3
30 -8 66 -10 80 -2 14 -7 45 -10 70 -3 25 -8 52 -10 60 -2 8 -7 42 -10 75 -4
32 -8 62 -10 65 -2 3 -6 26 -10 50 -3 25 -11 70 -16 100 -6 30 -12 64 -14 75
-7 51 -68 348 -86 420 -11 44 -22 94 -25 110 -6 35 -71 296 -85 340 -12 38
-76 262 -95 334 -50 186 -272 814 -348 986 -8 17 -37 86 -66 155 -57 138 -64
154 -157 355 -57 122 -134 281 -165 339 -5 10 -39 75 -75 145 -37 69 -84 158
-106 196 -22 39 -53 95 -70 125 -128 232 -468 765 -603 947 -9 13 -45 62 -80
110 -35 49 -72 99 -81 112 -46 63 -233 303 -281 361 -30 36 -62 74 -71 85 -33
42 -187 222 -226 265 -171 193 -253 279 -500 525 -154 154 -320 316 -370 360
-49 44 -108 96 -130 117 -22 20 -78 69 -125 108 -47 40 -97 82 -111 95 -39 34
-331 267 -363 290 -16 11 -41 30 -56 42 -15 13 -67 52 -116 87 -49 36 -93 69
-99 73 -40 33 -330 231 -470 320 -505 325 -1061 627 -1540 835 -38 17 -90 39
-115 50 -25 11 -58 26 -75 33 -176 78 -628 246 -895 333 -289 94 -881 256
-1013 277 -29 5 -49 9 -142 31 -16 4 -37 8 -45 10 -19 4 -82 16 -95 19 -5 2
-26 5 -45 9 -19 3 -60 10 -90 16 -30 6 -66 13 -80 15 -14 2 -40 6 -57 9 -31 6
-55 10 -120 21 -87 14 -307 45 -358 50 -33 3 -71 8 -85 10 -37 7 -169 21 -275
30 -38 3 -88 8 -110 10 -36 4 -131 11 -270 20 -189 12 -384 18 -678 19 -186 1
-339 1 -340 -1z"/>
</g>
</svg>
